<svg width="1200" height="700" viewBox="0 0 1200 700" fill="none" xmlns="http://www.w3.org/2000/svg">
  <defs>
    <linearGradient id="sky" x1="0" y1="0" x2="0" y2="1">
      <stop offset="0%" stop-color="#7EC8FF" />
      <stop offset="100%" stop-color="#E9F7FF" />
    </linearGradient>
    <linearGradient id="ground" x1="0" y1="0" x2="0" y2="1">
      <stop offset="0%" stop-color="#8BC34A" />
      <stop offset="100%" stop-color="#5A8F2B" />
    </linearGradient>
  </defs>
  <rect width="1200" height="700" fill="url(#sky)" />
  <circle cx="1030" cy="140" r="60" fill="#FFD54F" />
  <rect y="430" width="1200" height="270" fill="url(#ground)" />
  <rect x="0" y="350" width="1200" height="120" fill="#6FC2FF" opacity="0.8" />
  <path d="M0 430 L180 310 L360 430 Z" fill="#B0BEC5" />
  <path d="M220 430 L470 250 L720 430 Z" fill="#90A4AE" />
  <path d="M620 430 L820 300 L1020 430 Z" fill="#A7B6BC" />
  <rect x="80" y="80" rx="22" ry="22" width="1040" height="90" fill="#F5F0D8" stroke="#D6C58B" stroke-width="6" />
  <text x="600" y="135" text-anchor="middle" font-family="'Trebuchet MS', sans-serif" font-size="44" fill="#2E7D32" font-weight="700">ECOLOGÍA DE COMUNIDADES</text>
  <rect x="130" y="190" rx="16" ry="16" width="940" height="60" fill="#2E7D32" opacity="0.9" />
  <text x="600" y="230" text-anchor="middle" font-family="'Trebuchet MS', sans-serif" font-size="28" fill="#F1F8E9">Interacciones, Diversidad y Energía</text>
  <rect x="70" y="300" rx="20" ry="20" width="420" height="260" fill="#FFF3E0" stroke="#E0B074" stroke-width="4" />
  <text x="115" y="345" font-family="'Trebuchet MS', sans-serif" font-size="26" fill="#7B4F1D" font-weight="700">1 Interacciones interespecíficas</text>
  <text x="115" y="390" font-family="'Trebuchet MS', sans-serif" font-size="20" fill="#6D4C41">Mutualismo · Depredación · Competencia</text>
  <rect x="530" y="300" rx="20" ry="20" width="600" height="260" fill="#E8F5E9" stroke="#9CCC65" stroke-width="4" />
  <text x="570" y="345" font-family="'Trebuchet MS', sans-serif" font-size="26" fill="#2E7D32" font-weight="700">2 Estructura de comunidades</text>
  <text x="570" y="390" font-family="'Trebuchet MS', sans-serif" font-size="20" fill="#388E3C">Riqueza · Abundancia · Dominancia</text>
</svg>
